<svg xmlns="http://www.w3.org/2000/svg" viewBox="0 0 1024 507" fill="none">
	<path d="M 204.352 78.951 C 136.552 86.792, 85.221 132.542, 69.662 199 C 65.809 215.454, 65.560 217.897, 65.530 239.500 C 65.506 257.011, 65.875 263.336, 67.338 270.500 C 71.122 289.035, 74.538 299.317, 81.957 314.500 C 100.557 352.567, 135.589 382.026, 178.329 395.541 C 194.260 400.579, 203.802 402.185, 221.036 402.726 C 244.793 403.471, 260.174 401.058, 278.263 393.745 L 286.500 390.416 315.500 404.833 C 362.377 428.138, 389.764 439.281, 412.500 444.299 C 416.350 445.149, 421.975 446.382, 425 447.040 C 432.751 448.726, 461.864 449.404, 472 448.135 C 486.231 446.354, 498.348 443.327, 510.500 438.520 C 520.028 434.750, 524 432.219, 524 429.918 C 524 427.465, 521.169 427.418, 513.932 429.750 C 506.908 432.013, 470.670 432.263, 459 430.128 C 429.902 424.807, 401.909 415.394, 359.500 396.673 C 335.744 386.186, 318.990 378.612, 315.719 376.882 L 312.938 375.412 320.896 369.144 C 337.393 356.150, 351.133 339.557, 360.984 320.731 C 375.600 292.801, 381.292 269.797, 381.332 238.500 C 381.370 208.520, 376.088 185.894, 363.066 160.247 C 354.098 142.584, 343.435 128.986, 328.500 116.167 C 305.863 96.737, 282.051 85.890, 249 79.953 C 241.388 78.586, 213.015 77.949, 204.352 78.951 M 208 90.081 C 171.150 94.769, 140.804 124.216, 125.125 170.500 C 117.771 192.212, 114.114 214.634, 114.036 238.500 C 113.886 284.288, 129.878 331.055, 154.993 358.272 L 159.817 363.500 160.473 360.500 C 162.235 352.450, 165.418 341.021, 167.059 336.855 C 168.852 332.302, 168.848 332.105, 166.842 326.855 C 164.234 320.031, 164.690 308.467, 167.938 299 C 172.329 286.205, 182.263 268, 184.854 268 C 185.317 268, 186.508 269.800, 187.500 272 C 188.492 274.200, 189.625 276, 190.018 276 C 190.410 276, 190.951 272.923, 191.221 269.162 C 191.892 259.774, 196.130 252.031, 205.432 243.195 C 221.105 228.307, 249.550 213.299, 263.251 212.689 C 267.362 212.506, 267.510 212.606, 267.814 215.760 C 268.623 224.154, 259.501 247.993, 251.160 259.283 C 246.456 265.651, 244.218 267.385, 234.250 272.387 C 230.262 274.388, 227 276.303, 227 276.642 C 227 276.981, 229.662 276.957, 232.916 276.589 C 236.170 276.221, 239.044 276.275, 239.303 276.710 C 240.084 278.022, 234.466 287.047, 227.278 296.030 C 220.478 304.527, 217.051 306.974, 204.996 311.940 L 201.500 313.380 205.750 313.747 C 208.088 313.950, 210 314.505, 210 314.981 C 210 318.461, 198.741 327.277, 185.737 333.979 C 176.937 338.514, 176.578 338.835, 174.984 343.585 C 172.327 351.502, 169.579 362.912, 170.183 363.516 C 170.489 363.822, 173.161 363.100, 176.120 361.910 C 190.357 356.185, 210.180 352.053, 223.574 352.018 C 237.694 351.982, 257.202 355.791, 277 362.451 L 287.500 365.983 290.878 362.242 C 310.464 340.549, 325.672 307.211, 330.677 275 C 333.099 259.416, 333.528 225.932, 331.498 211.044 C 326.324 173.105, 312.252 140.973, 291.052 118.692 C 284.012 111.292, 272.462 102.716, 263.438 98.189 C 248.512 90.700, 227.399 87.612, 208 90.081 M 792.500 128.031 C 786.450 129.647, 776.550 132.154, 770.500 133.602 C 750.627 138.359, 750.536 138.394, 750.184 141.348 C 749.963 143.199, 750.329 144, 751.396 144 C 752.237 144, 755.417 144.932, 758.462 146.072 C 762.948 147.750, 764.461 148.937, 766.426 152.322 C 770.922 160.066, 771.129 165.704, 770.776 271 C 770.417 378.248, 770.618 374.620, 764.765 379.544 C 763.194 380.866, 760.017 382.419, 757.705 382.996 C 751.779 384.473, 750.500 385.381, 750.500 388.109 L 750.500 390.500 789 390.500 L 827.500 390.500 827.811 387.805 C 828.091 385.384, 827.683 384.997, 823.811 383.995 C 821.440 383.382, 818.600 382.631, 817.500 382.326 C 814.817 381.580, 811.179 378.169, 809.155 374.500 C 807.645 371.762, 807.476 360.839, 807.231 249.579 C 806.969 131.185, 806.811 124.848, 804.128 125.046 C 803.782 125.072, 798.550 126.415, 792.500 128.031 M 894.497 128.081 C 888.449 129.669, 878.550 132.154, 872.500 133.602 C 852.801 138.317, 852.534 138.417, 852.197 141.213 C 851.942 143.328, 852.394 143.829, 855.037 144.357 C 866.290 146.608, 870.211 151.313, 871.929 164.625 C 873.544 177.130, 872.803 367.372, 871.121 372.500 C 868.904 379.255, 865.986 381.504, 856.189 384.008 C 852.314 384.998, 851.909 385.383, 852.189 387.805 L 852.500 390.500 891 390.500 L 929.500 390.500 929.811 387.805 C 930.091 385.384, 929.683 384.997, 925.811 383.995 C 923.440 383.382, 920.600 382.631, 919.500 382.326 C 916.817 381.580, 913.179 378.169, 911.155 374.500 C 909.645 371.762, 909.476 360.818, 909.231 249.275 C 908.978 134.483, 908.856 126.993, 907.227 126.122 C 906.032 125.482, 902.079 126.090, 894.497 128.081 M 668.881 137.793 C 661.072 141.873, 657.669 147.163, 657.170 155.999 C 656.501 167.835, 661.939 175.425, 673.431 178.694 C 678.285 180.075, 679.288 180.059, 684.631 178.516 C 694.451 175.679, 702.023 166.026, 701.990 156.384 C 701.977 152.463, 697.888 144.095, 694.376 140.803 C 687.518 134.373, 677.658 133.209, 668.881 137.793 M 460.500 220.098 C 456.103 221.042, 436.323 224.173, 423 226.035 C 411.676 227.617, 411.815 227.557, 412.183 230.688 C 412.461 233.050, 413.185 233.559, 418 234.767 C 424.208 236.325, 427.514 238.895, 429.879 244 C 431.280 247.025, 431.580 254.419, 432.090 298.500 C 432.639 345.959, 432.819 349.917, 434.684 355.500 C 441.266 375.211, 453.751 386.901, 473.088 391.459 C 487.517 394.860, 509.271 392.968, 522.349 387.173 C 531.321 383.198, 543.999 372.914, 548.142 366.250 C 549.254 364.462, 550.576 363, 551.082 363 C 551.592 363, 552 368.695, 552 375.809 C 552 393.328, 551.328 392.672, 567.068 390.529 C 573.905 389.598, 580.400 388.698, 581.500 388.529 C 592.586 386.826, 599.855 385.746, 602.350 385.430 C 608.972 384.592, 608.681 380.187, 601.889 378.454 C 591.761 375.871, 588.556 371.993, 586.903 360.320 C 586.396 356.740, 586.048 323.881, 586.129 287.300 C 586.283 217.476, 586.313 217.985, 582.120 219.529 C 581.361 219.808, 576.411 220.709, 571.120 221.530 C 548.046 225.112, 540.222 226.304, 536 226.883 C 531.804 227.458, 531.500 227.703, 531.500 230.500 C 531.500 233.234, 531.908 233.601, 536.104 234.636 C 542.281 236.161, 544.462 237.435, 547.002 241.002 C 550.319 245.662, 551.149 259.002, 550.798 302.077 C 550.496 339.164, 550.407 340.691, 548.249 346 C 543.706 357.180, 533.120 367.842, 522.344 372.090 C 517.603 373.959, 514.518 374.404, 506 374.447 C 496.492 374.495, 494.967 374.238, 489.858 371.730 C 483.620 368.666, 477.251 362.373, 474.062 356.121 C 469.338 346.863, 469 341.779, 469 280.090 C 469 225.384, 468.903 222.222, 467.171 220.655 C 466.165 219.745, 465.153 219.054, 464.921 219.120 C 464.690 219.186, 462.700 219.626, 460.500 220.098 M 687.500 220.087 C 685.300 220.553, 674.725 222.325, 664 224.025 C 641.219 227.636, 641.367 227.601, 640.575 229.665 C 639.668 232.029, 641.523 233.643, 646.623 234.927 C 652.856 236.496, 655.726 238.578, 658.308 243.403 C 660.497 247.493, 660.500 247.599, 660.500 309.500 C 660.500 367.894, 660.392 371.717, 658.644 375.234 C 656.481 379.584, 652.143 382.546, 646.500 383.527 C 641.678 384.366, 639.645 386.468, 641.074 389.138 C 642.019 390.903, 644.006 390.999, 679.285 390.985 C 699.753 390.976, 717.107 390.585, 717.848 390.115 C 719.519 389.056, 719.016 385.985, 717 384.929 C 716.175 384.497, 712.808 383.324, 709.518 382.322 C 702.393 380.152, 699.558 376.692, 698.480 368.851 C 698.092 366.031, 697.756 332.152, 697.734 293.565 C 697.712 254.977, 697.327 222.414, 696.879 221.203 C 696 218.826, 694.372 218.632, 687.500 220.087 M 223.010 252.653 C 206.159 268.689, 192.991 286.435, 182.311 307.500 C 176.233 319.487, 169.786 335.646, 168.661 341.711 C 167.531 347.806, 169.822 345.979, 173.001 338.251 C 186.981 304.270, 199.777 283.698, 224.370 255.663 C 232.005 246.960, 234.081 244, 232.551 244 C 232.305 244, 228.011 247.894, 223.010 252.653 M 190.854 367.558 C 181.632 369.397, 173.151 371.947, 172.442 373.094 C 171.558 374.524, 175.487 377.428, 185 382.377 C 199.968 390.163, 205.884 391.496, 225.500 391.498 C 244.350 391.500, 247.948 390.849, 260.315 385.196 C 267.989 381.688, 268.084 381.600, 265.609 380.303 C 264.222 379.576, 259.355 377.591, 254.794 375.890 C 231.217 367.101, 208.195 364.101, 190.854 367.558" fill="currentColor" fill-rule="evenodd"/>
</svg>
