<svg xmlns="http://www.w3.org/2000/svg" viewBox="0 40 450 450" fill="none">
  <circle cx="225" cy="265" r="220" fill="#f6f4f0"/>
  <path d="M 204.352 78.951 C 136.552 86.792, 85.221 132.542, 69.662 199 C 65.809 215.454, 65.560 217.897, 65.530 239.500 C 65.506 257.011, 65.875 263.336, 67.338 270.500 C 71.122 289.035, 74.538 299.317, 81.957 314.500 C 100.557 352.567, 135.589 382.026, 178.329 395.541 C 194.260 400.579, 203.802 402.185, 221.036 402.726 C 244.793 403.471, 260.174 401.058, 278.263 393.745 L 286.500 390.416 315.500 404.833 C 362.377 428.138, 389.764 439.281, 412.500 444.299 C 416.350 445.149, 421.975 446.382, 425 447.040 C 432.751 448.726, 461.864 449.404, 472 448.135 C 486.231 446.354, 498.348 443.327, 510.500 438.520 C 520.028 434.750, 524 432.219, 524 429.918 C 524 427.465, 521.169 427.418, 513.932 429.750 C 506.908 432.013, 470.670 432.263, 459 430.128 C 429.902 424.807, 401.909 415.394, 359.500 396.673 C 335.744 386.186, 318.990 378.612, 315.719 376.882 L 312.938 375.412 320.896 369.144 C 337.393 356.150, 351.133 339.557, 360.984 320.731 C 375.600 292.801, 381.292 269.797, 381.332 238.500 C 381.370 208.520, 376.088 185.894, 363.066 160.247 C 354.098 142.584, 343.435 128.986, 328.500 116.167 C 305.863 96.737, 282.051 85.890, 249 79.953 C 241.388 78.586, 213.015 77.949, 204.352 78.951 M 208 90.081 C 171.150 94.769, 140.804 124.216, 125.125 170.500 C 117.771 192.212, 114.114 214.634, 114.036 238.500 C 113.886 284.288, 129.878 331.055, 154.993 358.272 L 159.817 363.500 160.473 360.500 C 162.235 352.450, 165.418 341.021, 167.059 336.855 C 168.852 332.302, 168.848 332.105, 166.842 326.855 C 164.234 320.031, 164.690 308.467, 167.938 299 C 172.329 286.205, 182.263 268, 184.854 268 C 185.317 268, 186.508 269.800, 187.500 272 C 188.492 274.200, 189.625 276, 190.018 276 C 190.410 276, 190.951 272.923, 191.221 269.162 C 191.892 259.774, 196.130 252.031, 205.432 243.195 C 221.105 228.307, 249.550 213.299, 263.251 212.689 C 267.362 212.506, 267.510 212.606, 267.814 215.760 C 268.623 224.154, 259.501 247.993, 251.160 259.283 C 246.456 265.651, 244.218 267.385, 234.250 272.387 C 230.262 274.388, 227 276.303, 227 276.642 C 227 276.981, 229.662 276.957, 232.916 276.589 C 236.170 276.221, 239.044 276.275, 239.303 276.710 C 240.084 278.022, 234.466 287.047, 227.278 296.030 C 220.478 304.527, 217.051 306.974, 204.996 311.940 L 201.500 313.380 205.750 313.747 C 208.088 313.950, 210 314.505, 210 314.981 C 210 318.461, 198.741 327.277, 185.737 333.979 C 176.937 338.514, 176.578 338.835, 174.984 343.585 C 172.327 351.502, 169.579 362.912, 170.183 363.516 C 170.489 363.822, 173.161 363.100, 176.120 361.910 C 190.357 356.185, 210.180 352.053, 223.574 352.018 C 237.694 351.982, 257.202 355.791, 277 362.451 L 287.500 365.983 290.878 362.242 C 310.464 340.549, 325.672 307.211, 330.677 275 C 333.099 259.416, 333.528 225.932, 331.498 211.044 C 326.324 173.105, 312.252 140.973, 291.052 118.692 C 284.012 111.292, 272.462 102.716, 263.438 98.189 C 248.512 90.700, 227.399 87.612, 208 90.081 M 223.010 252.653 C 206.159 268.689, 192.991 286.435, 182.311 307.500 C 176.233 319.487, 169.786 335.646, 168.661 341.711 C 167.531 347.806, 169.822 345.979, 173.001 338.251 C 186.981 304.270, 199.777 283.698, 224.370 255.663 C 232.005 246.960, 234.081 244, 232.551 244 C 232.305 244, 228.011 247.894, 223.010 252.653 M 190.854 367.558 C 181.632 369.397, 173.151 371.947, 172.442 373.094 C 171.558 374.524, 175.487 377.428, 185 382.377 C 199.968 390.163, 205.884 391.496, 225.500 391.498 C 244.350 391.500, 247.948 390.849, 260.315 385.196 C 267.989 381.688, 268.084 381.600, 265.609 380.303 C 264.222 379.576, 259.355 377.591, 254.794 375.890 C 231.217 367.101, 208.195 364.101, 190.854 367.558" fill="#1f4d45" fill-rule="evenodd"/>
</svg>
